M48
; DRILL file {KiCad (6.0.7)} date Sun Oct  9 18:36:08 2022
; FORMAT={-:-/ absolute / inch / decimal}
; #@! TF.CreationDate,2022-10-09T18:36:08+08:00
; #@! TF.GenerationSoftware,Kicad,Pcbnew,(6.0.7)
; #@! TF.FileFunction,Plated,1,2,PTH
FMAT,2
INCH
; #@! TA.AperFunction,Plated,PTH,ViaDrill
T1C0.0157
; #@! TA.AperFunction,Plated,PTH,ComponentDrill
T2C0.0236
; #@! TA.AperFunction,Plated,PTH,ComponentDrill
T3C0.0394
%
G90
G05
T1
X2.9Y-3.3
X3.3Y-2.8
X3.3052Y-3.6978
X3.4Y-3.6
X3.6Y-2.6
X3.6Y-3.1
X3.8Y-2.9
X3.9Y-2.9
X4.4Y-2.0
X4.4Y-2.6
X4.4Y-2.7
X4.6Y-2.9
X4.6811Y-3.0673
X4.7Y-2.0
X4.7Y-2.7
X4.7Y-3.0
X4.7123Y-2.272
X4.7648Y-3.1808
X4.8Y-2.7
X4.9Y-2.7
X4.9Y-3.0
X4.9Y-3.2
X5.0Y-2.7
X5.0Y-3.1
X5.0Y-3.4
X5.1Y-2.405
X5.1Y-2.8
X5.1Y-3.3
X5.2Y-2.5
X5.2Y-2.6
X5.2Y-2.9298
X5.3Y-2.2
X5.3Y-2.3
X5.3Y-2.5
X5.3Y-2.6
X5.339Y-2.5141
X5.4Y-2.0
X5.4Y-2.1
X5.4Y-2.2
X5.4Y-2.3
X5.4Y-2.8
X5.4383Y-2.3983
X5.4666Y-2.5023
X5.5Y-2.6
X5.5Y-2.6
X5.5713Y-3.5373
X5.6Y-2.4
X5.6Y-3.7
X5.7Y-2.5
X5.7Y-2.7
X5.7Y-3.3
X5.7411Y-3.5069
X5.7456Y-3.4477
X5.8Y-2.8
X5.8789Y-2.0068
X5.9Y-2.7
X5.9Y-3.0
X5.9Y-3.1
X5.9Y-3.3
X5.9Y-3.4
X5.9005Y-2.1171
X5.91Y-3.3489
X6.0047Y-3.098
X6.0761Y-3.3637
X6.1Y-2.1
X6.1Y-3.0
X6.2Y-1.8
X6.2Y-3.0
X6.2Y-3.2
X6.3Y-2.6
X6.3Y-3.3
X6.4Y-3.0
X6.5Y-2.9
X6.5Y-3.2
X6.5Y-3.3
X6.6206Y-3.2547
X6.667Y-3.3601
X6.7Y-2.0
X6.7Y-2.4
X6.7Y-3.2
X6.8Y-3.5
X6.9Y-2.3
X6.9Y-2.9
X7.1Y-2.3
T3
X3.1Y-2.2
X3.1874Y-3.3413
X3.1874Y-3.4413
X3.2Y-2.2
X3.3Y-2.2
X3.4Y-2.2
X3.5Y-2.2
X3.6Y-2.2
X3.7Y-2.2
X3.7004Y-3.8
X3.8Y-2.2
X3.8004Y-3.8
X3.9Y-2.2
X3.9004Y-3.8
X4.0Y-2.2
X4.0004Y-3.8
X4.1Y-2.2
X4.1004Y-3.8
X4.2Y-2.2
X4.2004Y-3.8
X4.3Y-2.2
X4.3004Y-3.8
X4.4Y-2.2
X4.4004Y-3.8
X4.5Y-2.2
X4.5004Y-3.8
X4.6Y-2.2
X4.6004Y-3.8
X4.7Y-2.2
X4.7004Y-3.8
X4.8Y-2.2
X4.8004Y-3.8
X4.9Y-2.2
X4.9004Y-3.8
X5.0Y-2.2
X5.0004Y-3.8
X5.1004Y-3.8
X5.2004Y-3.8
X5.3004Y-3.8
X5.4004Y-3.8
X5.5004Y-3.8
X5.6945Y-2.9449
X5.6945Y-3.0449
X5.6945Y-3.1449
X5.6945Y-3.2449
X6.365Y-1.9043
X6.365Y-2.0043
X6.365Y-2.1043
T2
G00X5.8441Y-2.961
M15
G01X5.8441Y-2.9177
M16
G05
G00X5.8441Y-3.1193
M15
G01X5.8441Y-3.0878
M16
G05
G00X6.1843Y-2.961
M15
G01X6.1843Y-2.9177
M16
G05
G00X6.1843Y-3.1193
M15
G01X6.1843Y-3.0878
M16
G05
T0
M30
