%TF.GenerationSoftware,KiCad,Pcbnew,(6.0.7)*%
%TF.CreationDate,2022-10-09T18:35:24+08:00*%
%TF.ProjectId,DynamicX_1,44796e61-6d69-4635-985f-312e6b696361,rev?*%
%TF.SameCoordinates,Original*%
%TF.FileFunction,Paste,Top*%
%TF.FilePolarity,Positive*%
%FSLAX46Y46*%
G04 Gerber Fmt 4.6, Leading zero omitted, Abs format (unit mm)*
G04 Created by KiCad (PCBNEW (6.0.7)) date 2022-10-09 18:35:24*
%MOMM*%
%LPD*%
G01*
G04 APERTURE LIST*
G04 Aperture macros list*
%AMRoundRect*
0 Rectangle with rounded corners*
0 $1 Rounding radius*
0 $2 $3 $4 $5 $6 $7 $8 $9 X,Y pos of 4 corners*
0 Add a 4 corners polygon primitive as box body*
4,1,4,$2,$3,$4,$5,$6,$7,$8,$9,$2,$3,0*
0 Add four circle primitives for the rounded corners*
1,1,$1+$1,$2,$3*
1,1,$1+$1,$4,$5*
1,1,$1+$1,$6,$7*
1,1,$1+$1,$8,$9*
0 Add four rect primitives between the rounded corners*
20,1,$1+$1,$2,$3,$4,$5,0*
20,1,$1+$1,$4,$5,$6,$7,0*
20,1,$1+$1,$6,$7,$8,$9,0*
20,1,$1+$1,$8,$9,$2,$3,0*%
G04 Aperture macros list end*
%ADD10R,1.550000X1.300000*%
%ADD11RoundRect,0.200000X-0.200000X-0.275000X0.200000X-0.275000X0.200000X0.275000X-0.200000X0.275000X0*%
%ADD12RoundRect,0.225000X-0.225000X-0.250000X0.225000X-0.250000X0.225000X0.250000X-0.225000X0.250000X0*%
%ADD13RoundRect,0.218750X-0.218750X-0.256250X0.218750X-0.256250X0.218750X0.256250X-0.218750X0.256250X0*%
%ADD14R,1.400000X1.200000*%
%ADD15R,1.400000X0.300000*%
%ADD16R,1.220000X0.650000*%
%ADD17RoundRect,0.200000X0.200000X0.275000X-0.200000X0.275000X-0.200000X-0.275000X0.200000X-0.275000X0*%
%ADD18RoundRect,0.225000X0.225000X0.250000X-0.225000X0.250000X-0.225000X-0.250000X0.225000X-0.250000X0*%
%ADD19R,0.650000X1.560000*%
%ADD20RoundRect,0.150000X-0.675000X-0.150000X0.675000X-0.150000X0.675000X0.150000X-0.675000X0.150000X0*%
%ADD21RoundRect,0.150000X-0.150000X-0.700000X0.150000X-0.700000X0.150000X0.700000X-0.150000X0.700000X0*%
%ADD22RoundRect,0.250000X-0.250000X-1.100000X0.250000X-1.100000X0.250000X1.100000X-0.250000X1.100000X0*%
%ADD23RoundRect,0.150000X-0.825000X-0.150000X0.825000X-0.150000X0.825000X0.150000X-0.825000X0.150000X0*%
%ADD24RoundRect,0.075000X-0.662500X-0.075000X0.662500X-0.075000X0.662500X0.075000X-0.662500X0.075000X0*%
%ADD25RoundRect,0.075000X-0.075000X-0.662500X0.075000X-0.662500X0.075000X0.662500X-0.075000X0.662500X0*%
%ADD26R,0.600000X1.160000*%
%ADD27R,0.300000X1.160000*%
G04 APERTURE END LIST*
D10*
%TO.C,SW3*%
X132135000Y-55165000D03*
X140085000Y-55165000D03*
X140085000Y-59665000D03*
X132135000Y-59665000D03*
%TD*%
D11*
%TO.C,R11*%
X131765000Y-67640000D03*
X133415000Y-67640000D03*
%TD*%
%TO.C,R3*%
X161735000Y-71120000D03*
X163385000Y-71120000D03*
%TD*%
D12*
%TO.C,C17*%
X146915000Y-54880000D03*
X148465000Y-54880000D03*
%TD*%
D13*
%TO.C,D3*%
X142892500Y-54920000D03*
X144467500Y-54920000D03*
%TD*%
D14*
%TO.C,Y1*%
X93110000Y-75310000D03*
X90910000Y-75310000D03*
X90910000Y-77010000D03*
X93110000Y-77010000D03*
%TD*%
D12*
%TO.C,C16*%
X135865000Y-62460000D03*
X137415000Y-62460000D03*
%TD*%
D15*
%TO.C,U3*%
X152240000Y-83830000D03*
X152240000Y-84330000D03*
X152240000Y-84830000D03*
X152240000Y-85330000D03*
X152240000Y-85830000D03*
X156640000Y-85830000D03*
X156640000Y-85330000D03*
X156640000Y-84830000D03*
X156640000Y-84330000D03*
X156640000Y-83830000D03*
%TD*%
D12*
%TO.C,C2*%
X160020000Y-81280000D03*
X161570000Y-81280000D03*
%TD*%
D16*
%TO.C,Q1*%
X152150000Y-88480000D03*
X152150000Y-90380000D03*
X154770000Y-89430000D03*
%TD*%
D12*
%TO.C,C7*%
X161785000Y-88340000D03*
X163335000Y-88340000D03*
%TD*%
%TO.C,C18*%
X139875000Y-64970000D03*
X141425000Y-64970000D03*
%TD*%
D11*
%TO.C,R10*%
X142815000Y-57470000D03*
X144465000Y-57470000D03*
%TD*%
D17*
%TO.C,R4*%
X82105000Y-81280000D03*
X80455000Y-81280000D03*
%TD*%
D18*
%TO.C,C10*%
X77405000Y-85970000D03*
X75855000Y-85970000D03*
%TD*%
%TO.C,C14*%
X88155000Y-77130000D03*
X86605000Y-77130000D03*
%TD*%
%TO.C,C8*%
X85385000Y-74620000D03*
X83835000Y-74620000D03*
%TD*%
D11*
%TO.C,R6*%
X139825000Y-62460000D03*
X141475000Y-62460000D03*
%TD*%
D19*
%TO.C,U1*%
X167640000Y-76360000D03*
X168590000Y-76360000D03*
X169540000Y-76360000D03*
X169540000Y-73660000D03*
X167640000Y-73660000D03*
%TD*%
D18*
%TO.C,C15*%
X93405000Y-70170000D03*
X91855000Y-70170000D03*
%TD*%
D11*
%TO.C,R7*%
X131765000Y-70150000D03*
X133415000Y-70150000D03*
%TD*%
D12*
%TO.C,C4*%
X166665000Y-83810000D03*
X168215000Y-83810000D03*
%TD*%
D10*
%TO.C,SW2*%
X143185000Y-47585000D03*
X151135000Y-47585000D03*
X143185000Y-52085000D03*
X151135000Y-52085000D03*
%TD*%
D20*
%TO.C,U5*%
X160945000Y-57065000D03*
X160945000Y-58335000D03*
X160945000Y-59605000D03*
X160945000Y-60875000D03*
X166195000Y-60875000D03*
X166195000Y-59605000D03*
X166195000Y-58335000D03*
X166195000Y-57065000D03*
%TD*%
D17*
%TO.C,R2*%
X168465000Y-86360000D03*
X166815000Y-86360000D03*
%TD*%
D12*
%TO.C,C1*%
X169405000Y-78740000D03*
X170955000Y-78740000D03*
%TD*%
%TO.C,C9*%
X88125000Y-91440000D03*
X89675000Y-91440000D03*
%TD*%
D10*
%TO.C,SW1*%
X87795000Y-96810000D03*
X79845000Y-96810000D03*
X79845000Y-101310000D03*
X87795000Y-101310000D03*
%TD*%
%TO.C,SW4*%
X140085000Y-47585000D03*
X132135000Y-47585000D03*
X132135000Y-52085000D03*
X140085000Y-52085000D03*
%TD*%
D12*
%TO.C,C5*%
X161785000Y-83820000D03*
X163335000Y-83820000D03*
%TD*%
D21*
%TO.C,J3*%
X161935000Y-74350000D03*
X163185000Y-74350000D03*
D22*
X160085000Y-77550000D03*
X165035000Y-77550000D03*
%TD*%
D11*
%TO.C,R1*%
X159295000Y-85830000D03*
X160945000Y-85830000D03*
%TD*%
D23*
%TO.C,U2*%
X144065000Y-86045000D03*
X144065000Y-87315000D03*
X144065000Y-88585000D03*
X144065000Y-89855000D03*
X149015000Y-89855000D03*
X149015000Y-88585000D03*
X149015000Y-87315000D03*
X149015000Y-86045000D03*
%TD*%
D12*
%TO.C,C6*%
X157385000Y-88460000D03*
X158935000Y-88460000D03*
%TD*%
D24*
%TO.C,U4*%
X112677500Y-73450000D03*
X112677500Y-73950000D03*
X112677500Y-74450000D03*
X112677500Y-74950000D03*
X112677500Y-75450000D03*
X112677500Y-75950000D03*
X112677500Y-76450000D03*
X112677500Y-76950000D03*
X112677500Y-77450000D03*
X112677500Y-77950000D03*
X112677500Y-78450000D03*
X112677500Y-78950000D03*
D25*
X114090000Y-80362500D03*
X114590000Y-80362500D03*
X115090000Y-80362500D03*
X115590000Y-80362500D03*
X116090000Y-80362500D03*
X116590000Y-80362500D03*
X117090000Y-80362500D03*
X117590000Y-80362500D03*
X118090000Y-80362500D03*
X118590000Y-80362500D03*
X119090000Y-80362500D03*
X119590000Y-80362500D03*
D24*
X121002500Y-78950000D03*
X121002500Y-78450000D03*
X121002500Y-77950000D03*
X121002500Y-77450000D03*
X121002500Y-76950000D03*
X121002500Y-76450000D03*
X121002500Y-75950000D03*
X121002500Y-75450000D03*
X121002500Y-74950000D03*
X121002500Y-74450000D03*
X121002500Y-73950000D03*
X121002500Y-73450000D03*
D25*
X119590000Y-72037500D03*
X119090000Y-72037500D03*
X118590000Y-72037500D03*
X118090000Y-72037500D03*
X117590000Y-72037500D03*
X117090000Y-72037500D03*
X116590000Y-72037500D03*
X116090000Y-72037500D03*
X115590000Y-72037500D03*
X115090000Y-72037500D03*
X114590000Y-72037500D03*
X114090000Y-72037500D03*
%TD*%
D18*
%TO.C,C13*%
X77405000Y-88480000D03*
X75855000Y-88480000D03*
%TD*%
D12*
%TO.C,C19*%
X165225000Y-47300000D03*
X166775000Y-47300000D03*
%TD*%
D13*
%TO.C,D1*%
X131842500Y-62500000D03*
X133417500Y-62500000D03*
%TD*%
D11*
%TO.C,R9*%
X135815000Y-67480000D03*
X137465000Y-67480000D03*
%TD*%
D26*
%TO.C,J1*%
X149560000Y-74080000D03*
X150360000Y-74080000D03*
D27*
X151510000Y-74080000D03*
X152510000Y-74080000D03*
X153010000Y-74080000D03*
X154010000Y-74080000D03*
D26*
X155160000Y-74080000D03*
X155960000Y-74080000D03*
X155960000Y-74080000D03*
X155160000Y-74080000D03*
D27*
X154510000Y-74080000D03*
X153510000Y-74080000D03*
X152010000Y-74080000D03*
X151010000Y-74080000D03*
D26*
X150360000Y-74080000D03*
X149560000Y-74080000D03*
%TD*%
D18*
%TO.C,C11*%
X89395000Y-72680000D03*
X87845000Y-72680000D03*
%TD*%
D12*
%TO.C,C3*%
X166865000Y-81280000D03*
X168415000Y-81280000D03*
%TD*%
D11*
%TO.C,R8*%
X135815000Y-64970000D03*
X137465000Y-64970000D03*
%TD*%
D13*
%TO.C,D2*%
X133417500Y-65090000D03*
X131842500Y-65090000D03*
%TD*%
D18*
%TO.C,C12*%
X81375000Y-78770000D03*
X79825000Y-78770000D03*
%TD*%
D17*
%TO.C,R5*%
X93455000Y-72680000D03*
X91805000Y-72680000D03*
%TD*%
M02*
